<svg xmlns="http://www.w3.org/2000/svg" xmlns:xlink="http://www.w3.org/1999/xlink" xml:lang="en" height="614.1pt" width="774.617pt" viewBox="-32.016999999999996 -328.6 774.617 614.1"><path d="M 0.0,-0.0 L 0,-29.475 M 0,-49.725 L 0,-79.2" style="stroke:#C0392B;fill:none;stroke-width:1.9;stroke-dasharray:-;stroke-linecap:round;stroke-linejoin:round;" /><path d="M -13.499999999999998,-29.475 L 13.5,-29.475" style="stroke:#C0392B;fill:none;stroke-width:1.9;stroke-dasharray:-;stroke-linecap:round;stroke-linejoin:round;" /><path d="M -6.749999999999998,-36.225 L 6.75,-36.225" style="stroke:#C0392B;fill:none;stroke-width:1.9;stroke-dasharray:-;stroke-linecap:round;stroke-linejoin:round;" /><path d="M -13.499999999999998,-42.975 L 13.5,-42.975" style="stroke:#C0392B;fill:none;stroke-width:1.9;stroke-dasharray:-;stroke-linecap:round;stroke-linejoin:round;" /><path d="M -6.749999999999997,-49.725 L 6.75,-49.725" style="stroke:#C0392B;fill:none;stroke-width:1.9;stroke-dasharray:-;stroke-linecap:round;stroke-linejoin:round;" /><path d="M 0.0,-79.2 L 25.2,-79.2 L 50.4,-79.2" style="stroke:#C0392B;fill:none;stroke-width:1.9;stroke-dasharray:-;stroke-linecap:round;stroke-linejoin:round;" /><path d="M 50.4,-79.2 L 72,-79.2 L 72,-88.2 L 108,-88.2 L 108,-70.2 L 72,-70.2 L 72,-79.2 M 108,-79.2 L 129.6,-79.2" style="stroke:#C0392B;fill:#e8d8a8;stroke-width:1.9;stroke-dasharray:-;stroke-linecap:round;stroke-linejoin:round;" /><path d="M 72.0,-79.2 L 108,-79.2" style="stroke:#C0392B;fill:none;stroke-width:1.9;stroke-dasharray:-;stroke-linecap:round;stroke-linejoin:round;" /><path d="M 129.6,-79.2 L 154.8,-79.2 L 180,-79.2" style="stroke:#C0392B;fill:none;stroke-width:1.9;stroke-dasharray:-;stroke-linecap:round;stroke-linejoin:round;" /><path d="M 180.0,-187.20000000000002 L 180,-21.6 L 180,144" style="stroke:#C0392B;fill:none;stroke-width:1.9;stroke-dasharray:-;stroke-linecap:round;stroke-linejoin:round;" /><path d="M 180.0,-187.20000000000002 L 201.6,-187.2 L 201.6,-196.2 L 237.6,-196.2 L 237.6,-178.2 L 201.6,-178.2 L 201.6,-187.2 M 237.6,-187.2 L 259.2,-187.2" style="stroke:#C0392B;fill:#e8d8a8;stroke-width:1.9;stroke-dasharray:-;stroke-linecap:round;stroke-linejoin:round;" /><path d="M 201.6,-187.20000000000002 L 237.6,-187.2" style="stroke:#C0392B;fill:none;stroke-width:1.9;stroke-dasharray:-;stroke-linecap:round;stroke-linejoin:round;" /><path d="M 259.2,-187.20000000000002 L 277.2,-187.2 L 295.2,-187.2" style="stroke:#C0392B;fill:none;stroke-width:1.9;stroke-dasharray:-;stroke-linecap:round;stroke-linejoin:round;" /><path d="M 313.2,-154.79999999999998 L 435.6,-154.8 L 435.6,-219.6 L 313.2,-219.6 L 313.2,-154.8" style="stroke:#2B333C;fill:#f4f6f8;stroke-width:1.9;stroke-dasharray:-;stroke-linecap:round;stroke-linejoin:round;" /><path d="M 313.2,-187.20000000000002 L 295.2,-187.2" style="stroke:#2B333C;fill:none;stroke-width:1.9;stroke-dasharray:-;stroke-linecap:round;stroke-linejoin:round;" /><path d="M 435.59999999999997,-187.20000000000002 L 453.6,-187.2" style="stroke:#2B333C;fill:none;stroke-width:1.9;stroke-dasharray:-;stroke-linecap:round;stroke-linejoin:round;" /><path d="M 417.59999999999997,-187.20000000000002 L 450,-187.2 L 482.4,-187.2" style="stroke:#C98A1E;fill:none;stroke-width:1.9;stroke-dasharray:-;stroke-linecap:round;stroke-linejoin:round;" /><path d="M 500.40000000000003,-154.79999999999998 L 644.4,-154.8 L 644.4,-219.6 L 500.4,-219.6 L 500.4,-154.8" style="stroke:#2B333C;fill:#f4f6f8;stroke-width:1.9;stroke-dasharray:-;stroke-linecap:round;stroke-linejoin:round;" /><path d="M 500.40000000000003,-187.20000000000002 L 482.4,-187.2" style="stroke:#2B333C;fill:none;stroke-width:1.9;stroke-dasharray:-;stroke-linecap:round;stroke-linejoin:round;" /><path d="M 572.4,-154.79999999999998 L 572.4,-136.8" style="stroke:#2B333C;fill:none;stroke-width:1.9;stroke-dasharray:-;stroke-linecap:round;stroke-linejoin:round;" /><path d="M 482.40000000000003,-187.20000000000002" style="stroke:#C98A1E;fill:none;stroke-width:1.9;stroke-dasharray:-;stroke-linecap:round;stroke-linejoin:round;" /><path d="M 482.40000000000003,-187.20000000000002 L 482.4,-241.2 L 482.4,-295.2" style="stroke:#C98A1E;fill:none;stroke-width:1.9;stroke-dasharray:-;stroke-linecap:round;stroke-linejoin:round;" /><path d="M 594.0,-266.4 L 738,-266.4 L 738,-324 L 594,-324 L 594,-266.4" style="stroke:#2B333C;fill:#f4f6f8;stroke-width:1.9;stroke-dasharray:-;stroke-linecap:round;stroke-linejoin:round;" /><path d="M 594.0,-295.2 L 576,-295.2" style="stroke:#2B333C;fill:none;stroke-width:1.9;stroke-dasharray:-;stroke-linecap:round;stroke-linejoin:round;" /><path d="M 666.0,-266.4 L 666,-248.4" style="stroke:#2B333C;fill:none;stroke-width:1.9;stroke-dasharray:-;stroke-linecap:round;stroke-linejoin:round;" /><path d="M 482.40000000000003,-295.2 L 529.2,-295.2 L 576,-295.2" style="stroke:#C98A1E;fill:none;stroke-width:1.9;stroke-dasharray:-;stroke-linecap:round;stroke-linejoin:round;" /><path d="M 572.4,-136.8 L 572.4,-124.2 L 572.4,-111.6" style="stroke:#5C6875;fill:none;stroke-width:1.9;stroke-dasharray:-;stroke-linecap:round;stroke-linejoin:round;" /><path d="M 572.4,-111.60000000000002 L 572.4,-97.2 L 563.4,-97.2 L 581.4,-97.2 M 566.1,-92.88 L 578.7,-92.88 M 570.6,-88.56 L 574.2,-88.56" style="stroke:#5C6875;fill:none;stroke-width:1.9;stroke-dasharray:-;stroke-linecap:round;stroke-linejoin:round;" /><path d="M 666.0,-248.39999999999998 L 666,-235.8 L 666,-223.2" style="stroke:#5C6875;fill:none;stroke-width:1.9;stroke-dasharray:-;stroke-linecap:round;stroke-linejoin:round;" /><path d="M 666.0,-223.2 L 666,-208.8 L 657,-208.8 L 675,-208.8 M 659.7,-204.48 L 672.3,-204.48 M 664.2,-200.16 L 667.8,-200.16" style="stroke:#5C6875;fill:none;stroke-width:1.9;stroke-dasharray:-;stroke-linecap:round;stroke-linejoin:round;" /><path d="M 180.0,-0.0 L 201.6,-0 L 201.6,-9 L 237.6,-9 L 237.6,9 L 201.6,9 L 201.6,-0 M 237.6,-0 L 259.2,-0" style="stroke:#C0392B;fill:#e8d8a8;stroke-width:1.9;stroke-dasharray:-;stroke-linecap:round;stroke-linejoin:round;" /><path d="M 201.6,-0.0 L 237.6,-0" style="stroke:#C0392B;fill:none;stroke-width:1.9;stroke-dasharray:-;stroke-linecap:round;stroke-linejoin:round;" /><path d="M 259.2,-0.0 L 277.2,-0 L 295.2,-0" style="stroke:#C0392B;fill:none;stroke-width:1.9;stroke-dasharray:-;stroke-linecap:round;stroke-linejoin:round;" /><path d="M 313.2,30.599999999999998 L 507.6,30.6 L 507.6,-30.6 L 313.2,-30.6 L 313.2,30.6" style="stroke:#2B333C;fill:#f4f6f8;stroke-width:1.9;stroke-dasharray:-;stroke-linecap:round;stroke-linejoin:round;" /><path d="M 313.2,-0.0 L 295.2,-0" style="stroke:#2B333C;fill:none;stroke-width:1.9;stroke-dasharray:-;stroke-linecap:round;stroke-linejoin:round;" /><path d="M 180.0,144.0 L 237.6,144 L 295.2,144" style="stroke:#C0392B;fill:none;stroke-width:1.9;stroke-dasharray:-;stroke-linecap:round;stroke-linejoin:round;" /><path d="M 313.2,174.6 L 507.6,174.6 L 507.6,113.4 L 313.2,113.4 L 313.2,174.6" style="stroke:#2B333C;fill:#f4f6f8;stroke-width:1.9;stroke-dasharray:-;stroke-linecap:round;stroke-linejoin:round;" /><path d="M 313.2,144.0 L 295.2,144" style="stroke:#2B333C;fill:none;stroke-width:1.9;stroke-dasharray:-;stroke-linecap:round;stroke-linejoin:round;" /><path d="M 0.0,-0.0 L 0,126 L 0,252" style="stroke:#5C6875;fill:none;stroke-width:1.9;stroke-dasharray:-;stroke-linecap:round;stroke-linejoin:round;" /><path d="M 0.0,252.0 L 198,252 L 396,252" style="stroke:#5C6875;fill:none;stroke-width:1.9;stroke-dasharray:-;stroke-linecap:round;stroke-linejoin:round;" /><path d="M 252.0,252.0 L 252,266.4 L 243,266.4 L 261,266.4 M 245.7,270.72 L 258.3,270.72 M 250.2,275.04 L 253.8,275.04" style="stroke:#5C6875;fill:none;stroke-width:1.9;stroke-dasharray:-;stroke-linecap:round;stroke-linejoin:round;" /><text x="-2.2043642384652353e-16" y="-9.400000000000002" dominant-baseline="hanging" fill="#2B333C" font-size="13" font-family="Helvetica" text-anchor="middle"><tspan x="-2.2043642384652353e-16" dy="13">3S LiPo</tspan><tspan x="-2.2043642384652353e-16" dy="13">12.6V full</tspan></text><text x="90.0" y="-117.80000000000001" dominant-baseline="ideographic" fill="#2B333C" font-size="13" font-family="Helvetica" text-anchor="middle"><tspan x="90.0" dy="13">MAIN</tspan><tspan x="90.0" dy="13">20A</tspan></text><text x="270.0" y="-129.8" dominant-baseline="central" fill="#5C6875" font-size="11" font-family="Helvetica" text-anchor="middle"><tspan x="270.0" dy="11">12V distribution block</tspan></text><text x="219.6" y="-212.79999999999998" dominant-baseline="ideographic" fill="#2B333C" font-size="13" font-family="Helvetica" text-anchor="middle"><tspan x="219.6" dy="13">3A</tspan></text><text x="378.0" y="-210.29999999999998" dominant-baseline="central" fill="#2B333C" font-size="13" font-family="Helvetica" text-anchor="middle"><tspan x="378.0" dy="13">BUCK</tspan><tspan x="378.0" dy="13">12V - 5V</tspan></text><text x="453.59999999999997" y="-230.6" dominant-baseline="central" fill="#C98A1E" font-size="11" font-family="Helvetica" text-anchor="middle"><tspan x="453.59999999999997" dy="11">+5V</tspan></text><text x="576.0" y="-210.29999999999998" dominant-baseline="central" fill="#2B333C" font-size="13" font-family="Helvetica" text-anchor="middle"><tspan x="576.0" dy="13">UNO Q</tspan><tspan x="576.0" dy="13">5V header pin</tspan></text><text x="669.6" y="-318.29999999999995" dominant-baseline="central" fill="#2B333C" font-size="13" font-family="Helvetica" text-anchor="middle"><tspan x="669.6" dy="13">servos</tspan><tspan x="669.6" dy="13">S3003 + SG90</tspan></text><text x="219.6" y="-25.6" dominant-baseline="ideographic" fill="#2B333C" font-size="13" font-family="Helvetica" text-anchor="middle"><tspan x="219.6" dy="13">2A</tspan></text><text x="414.0" y="-23.099999999999998" dominant-baseline="central" fill="#2B333C" font-size="13" font-family="Helvetica" text-anchor="middle"><tspan x="414.0" dy="13">+12V to the solenoid</tspan><tspan x="414.0" dy="13">sheet 3</tspan></text><text x="414.0" y="120.9" dominant-baseline="central" fill="#2B333C" font-size="13" font-family="Helvetica" text-anchor="middle"><tspan x="414.0" dy="13">IBT-2 x2   B+</tspan><tspan x="414.0" dy="13">sheet 2</tspan></text><text x="414.0" y="264.40000000000003" dominant-baseline="central" fill="#5C6875" font-size="11" font-family="Helvetica" text-anchor="middle"><tspan x="414.0" dy="11">common GND - one star point at the block</tspan></text><circle cx="180" cy="-79.2" r="2.7" style="stroke:#C0392B;fill:#c0392b;stroke-width:1.9;stroke-dasharray:-;" /><circle cx="180" cy="-187.2" r="2.7" style="stroke:#C0392B;fill:#c0392b;stroke-width:1.9;stroke-dasharray:-;" /><circle cx="482.4" cy="-187.2" r="2.7" style="stroke:#C98A1E;fill:#c98a1e;stroke-width:1.9;stroke-dasharray:-;" /><circle cx="180" cy="-0" r="2.7" style="stroke:#C0392B;fill:#c0392b;stroke-width:1.9;stroke-dasharray:-;" /><circle cx="180" cy="144" r="2.7" style="stroke:#C0392B;fill:#c0392b;stroke-width:1.9;stroke-dasharray:-;" /></svg>